<?xml version="1.0" encoding="UTF-8" standalone="no"?>
<!-- Created with Inkscape (http://www.inkscape.org/) -->

<svg
   xmlns:dc="http://purl.org/dc/elements/1.1/"
   xmlns:cc="http://creativecommons.org/ns#"
   xmlns:rdf="http://www.w3.org/1999/02/22-rdf-syntax-ns#"
   xmlns:svg="http://www.w3.org/2000/svg"
   xmlns="http://www.w3.org/2000/svg"
   xmlns:xlink="http://www.w3.org/1999/xlink"
   xmlns:sodipodi="http://sodipodi.sourceforge.net/DTD/sodipodi-0.dtd"
   xmlns:inkscape="http://www.inkscape.org/namespaces/inkscape"
   width="210mm"
   height="297mm"
   viewBox="0 0 744.09448819 1052.3622047"
   id="svg2"
   version="1.1"
   inkscape:version="0.91 r13725"
   sodipodi:docname="TestsLogos.svg">
  <defs
     id="defs4">
    <linearGradient
       inkscape:collect="always"
       id="linearGradient4317">
      <stop
         style="stop-color:#ff781d;stop-opacity:1"
         offset="0"
         id="stop4319" />
      <stop
         style="stop-color:#d95600;stop-opacity:1"
         offset="1"
         id="stop4321" />
    </linearGradient>
    <linearGradient
       id="linearGradient4245"
       inkscape:collect="always">
      <stop
         id="stop4247"
         offset="0"
         style="stop-color:#7fa4dc;stop-opacity:1" />
      <stop
         id="stop4249"
         offset="1"
         style="stop-color:#4c80ce;stop-opacity:1" />
    </linearGradient>
    <linearGradient
       inkscape:collect="always"
       id="linearGradient4204">
      <stop
         style="stop-color:#f2c200;stop-opacity:1"
         offset="0"
         id="stop4206" />
      <stop
         style="stop-color:#cea500;stop-opacity:1"
         offset="1"
         id="stop4208" />
    </linearGradient>
    <radialGradient
       inkscape:collect="always"
       xlink:href="#linearGradient4204"
       id="radialGradient4210"
       cx="445.18392"
       cy="282.19267"
       fx="445.18392"
       fy="282.19267"
       r="332.84525"
       gradientTransform="matrix(1,0,0,0.59332323,-68.571429,124.7612)"
       gradientUnits="userSpaceOnUse" />
    <radialGradient
       inkscape:collect="always"
       xlink:href="#linearGradient4245"
       id="radialGradient4243"
       gradientUnits="userSpaceOnUse"
       gradientTransform="matrix(1,0,0,0.59332323,-68.571429,124.7612)"
       cx="445.18392"
       cy="282.19267"
       fx="445.18392"
       fy="282.19267"
       r="332.84525" />
    <radialGradient
       inkscape:collect="always"
       xlink:href="#linearGradient4317"
       id="radialGradient4323"
       cx="376.61249"
       cy="292.19267"
       fx="376.61249"
       fy="292.19267"
       r="332.84525"
       gradientTransform="matrix(1,0,0,0.59332323,0,118.82797)"
       gradientUnits="userSpaceOnUse" />
  </defs>
  <sodipodi:namedview
     id="base"
     pagecolor="#ffffff"
     bordercolor="#666666"
     borderopacity="1.0"
     inkscape:pageopacity="0.0"
     inkscape:pageshadow="2"
     inkscape:zoom="0.49497475"
     inkscape:cx="923.8946"
     inkscape:cy="419.62751"
     inkscape:document-units="px"
     inkscape:current-layer="g4299"
     showgrid="false"
     inkscape:window-width="1920"
     inkscape:window-height="1017"
     inkscape:window-x="1912"
     inkscape:window-y="-8"
     inkscape:window-maximized="1" />
  <metadata
     id="metadata7">
    <rdf:RDF>
      <cc:Work
         rdf:about="">
        <dc:format>image/svg+xml</dc:format>
        <dc:type
           rdf:resource="http://purl.org/dc/dcmitype/StillImage" />
        <dc:title></dc:title>
      </cc:Work>
    </rdf:RDF>
  </metadata>
  <g
     inkscape:label="Calque 1"
     inkscape:groupmode="layer"
     id="layer1">
    <g
       id="g4212">
      <rect
         y="94.707855"
         x="43.767246"
         height="394.96964"
         width="665.69049"
         id="rect4136"
         style="fill:url(#radialGradient4210);fill-opacity:1;fill-rule:evenodd;stroke:none;stroke-width:3;stroke-linecap:round;stroke-linejoin:round;stroke-miterlimit:4;stroke-dasharray:none;stroke-dashoffset:0;stroke-opacity:1" />
      <g
         transform="translate(-70.883181,15.130342)"
         id="g4195">
        <g
           style="fill:#8d7000;fill-opacity:1"
           id="g4165">
          <path
             inkscape:connector-curvature="0"
             style="fill:#8d7000;fill-opacity:1;fill-rule:evenodd;stroke:none;stroke-width:3;stroke-linecap:round;stroke-linejoin:round;stroke-miterlimit:4;stroke-dasharray:none;stroke-dashoffset:0;stroke-opacity:1"
             d="m 282.6543,212.90234 c -0.94875,-0.002 -1.89883,0.0107 -2.84961,0.0391 -2.50065,0.0755 -4.9953,0.25732 -7.47461,0.54492 -41.03074,4.75732 -69.78496,36.90601 -64.25977,71.8457 5.52536,34.93928 43.24186,59.46864 84.28907,54.81836 l 0.45117,-0.0508 c 10.70455,-1.29562 20.95397,-4.54486 30.04687,-9.52539 l 0,-26.33594 a 48.396099,41.852226 0 0 1 -30.33203,14.55664 l -0.28906,0.0332 a 48.396099,41.852226 0 0 1 -54.34961,-35.90234 48.396099,41.852226 0 0 1 41.43359,-47.05273 48.396099,41.852226 0 0 1 43.53711,14.51757 l 0,-27.42773 c -12.02378,-6.54362 -25.97187,-10.02462 -40.20312,-10.06055 z"
             id="path4138" />
          <path
             sodipodi:nodetypes="ccccc"
             inkscape:connector-curvature="0"
             id="path4159"
             d="M 356.34925,211.11303 427.2314,326.18414 426.85291,211.42112 354.65616,325.801 Z"
             style="fill:#8d7000;fill-opacity:1;fill-rule:evenodd;stroke:none;stroke-width:1px;stroke-linecap:butt;stroke-linejoin:miter;stroke-opacity:1" />
          <path
             inkscape:connector-curvature="0"
             id="path4161"
             d="m 481.41183,344.04747 31.98103,-132.39955 23.75,-0.26786 28.49308,132.66776 -43.13586,-43.31746 z"
             style="fill:#8d7000;fill-opacity:1;fill-rule:evenodd;stroke:none;stroke-width:1px;stroke-linecap:butt;stroke-linejoin:miter;stroke-opacity:1"
             sodipodi:nodetypes="cccccc" />
          <path
             inkscape:connector-curvature="0"
             id="path4163"
             d="m 577.42845,218.92322 113.64216,0 -56.63168,126.26907 z"
             style="fill:#8d7000;fill-opacity:1;fill-rule:evenodd;stroke:none;stroke-width:1px;stroke-linecap:butt;stroke-linejoin:miter;stroke-opacity:1" />
        </g>
        <text
           xml:space="preserve"
           style="font-style:normal;font-weight:normal;font-size:184.2716217px;line-height:125%;font-family:sans-serif;letter-spacing:0px;word-spacing:0px;fill:#ffffff;fill-opacity:1;stroke:none;stroke-width:1px;stroke-linecap:butt;stroke-linejoin:miter;stroke-opacity:1"
           x="193.57346"
           y="344.04974"
           id="text4153"
           sodipodi:linespacing="125%"><tspan
             sodipodi:role="line"
             id="tspan4155"
             x="193.57346"
             y="344.04974"
             style="font-style:normal;font-variant:normal;font-weight:normal;font-stretch:normal;font-family:Webdings;-inkscape-font-specification:Webdings;fill:#ffffff;fill-opacity:1">CHAT</tspan></text>
      </g>
    </g>
    <g
       id="g4223"
       transform="translate(0,437.14286)">
      <rect
         style="fill:url(#radialGradient4243);fill-opacity:1;fill-rule:evenodd;stroke:none;stroke-width:3;stroke-linecap:round;stroke-linejoin:round;stroke-miterlimit:4;stroke-dasharray:none;stroke-dashoffset:0;stroke-opacity:1"
         id="rect4225"
         width="665.69049"
         height="394.96964"
         x="43.767246"
         y="94.707855" />
      <g
         id="g4227"
         transform="translate(-70.883181,15.130342)">
        <g
           id="g4229"
           style="fill:#2d5ca3;fill-opacity:1">
          <path
             id="path4231"
             d="m 282.6543,212.90234 c -0.94875,-0.002 -1.89883,0.0107 -2.84961,0.0391 -2.50065,0.0755 -4.9953,0.25732 -7.47461,0.54492 -41.03074,4.75732 -69.78496,36.90601 -64.25977,71.8457 5.52536,34.93928 43.24186,59.46864 84.28907,54.81836 l 0.45117,-0.0508 c 10.70455,-1.29562 20.95397,-4.54486 30.04687,-9.52539 l 0,-26.33594 a 48.396099,41.852226 0 0 1 -30.33203,14.55664 l -0.28906,0.0332 a 48.396099,41.852226 0 0 1 -54.34961,-35.90234 48.396099,41.852226 0 0 1 41.43359,-47.05273 48.396099,41.852226 0 0 1 43.53711,14.51757 l 0,-27.42773 c -12.02378,-6.54362 -25.97187,-10.02462 -40.20312,-10.06055 z"
             style="fill:#2d5ca3;fill-opacity:1;fill-rule:evenodd;stroke:none;stroke-width:3;stroke-linecap:round;stroke-linejoin:round;stroke-miterlimit:4;stroke-dasharray:none;stroke-dashoffset:0;stroke-opacity:1"
             inkscape:connector-curvature="0" />
          <path
             style="fill:#2d5ca3;fill-opacity:1;fill-rule:evenodd;stroke:none;stroke-width:1px;stroke-linecap:butt;stroke-linejoin:miter;stroke-opacity:1"
             d="M 356.34925,211.11303 427.2314,326.18414 426.85291,211.42112 354.65616,325.801 Z"
             id="path4233"
             inkscape:connector-curvature="0"
             sodipodi:nodetypes="ccccc" />
          <path
             sodipodi:nodetypes="cccccc"
             style="fill:#2d5ca3;fill-opacity:1;fill-rule:evenodd;stroke:none;stroke-width:1px;stroke-linecap:butt;stroke-linejoin:miter;stroke-opacity:1"
             d="m 481.41183,344.04747 31.98103,-132.39955 23.75,-0.26786 28.49308,132.66776 -43.13586,-43.31746 z"
             id="path4235"
             inkscape:connector-curvature="0" />
          <path
             style="fill:#2d5ca3;fill-opacity:1;fill-rule:evenodd;stroke:none;stroke-width:1px;stroke-linecap:butt;stroke-linejoin:miter;stroke-opacity:1"
             d="m 577.42845,218.92322 113.64216,0 -56.63168,126.26907 z"
             id="path4237"
             inkscape:connector-curvature="0" />
        </g>
        <text
           sodipodi:linespacing="125%"
           id="text4239"
           y="344.04974"
           x="193.57346"
           style="font-style:normal;font-weight:normal;font-size:184.2716217px;line-height:125%;font-family:sans-serif;letter-spacing:0px;word-spacing:0px;fill:#ffffff;fill-opacity:1;stroke:none;stroke-width:1px;stroke-linecap:butt;stroke-linejoin:miter;stroke-opacity:1"
           xml:space="preserve"><tspan
             style="font-style:normal;font-variant:normal;font-weight:normal;font-stretch:normal;font-family:Webdings;-inkscape-font-specification:Webdings;fill:#ffffff;fill-opacity:1"
             y="344.04974"
             x="193.57346"
             id="tspan4241"
             sodipodi:role="line">CHAT</tspan></text>
      </g>
    </g>
    <g
       transform="translate(754.28571,437.14286)"
       id="g4251">
      <rect
         y="94.707855"
         x="43.767246"
         height="394.96964"
         width="665.69049"
         id="rect4253"
         style="fill:#5385d0;fill-opacity:1;fill-rule:evenodd;stroke:none;stroke-width:3;stroke-linecap:round;stroke-linejoin:round;stroke-miterlimit:4;stroke-dasharray:none;stroke-dashoffset:0;stroke-opacity:1" />
      <g
         transform="translate(-70.883181,15.130342)"
         id="g4255">
        <g
           style="fill:#2d5ca3;fill-opacity:1"
           id="g4257">
          <path
             inkscape:connector-curvature="0"
             style="fill:#2d5ca3;fill-opacity:1;fill-rule:evenodd;stroke:none;stroke-width:3;stroke-linecap:round;stroke-linejoin:round;stroke-miterlimit:4;stroke-dasharray:none;stroke-dashoffset:0;stroke-opacity:1"
             d="m 282.6543,212.90234 c -0.94875,-0.002 -1.89883,0.0107 -2.84961,0.0391 -2.50065,0.0755 -4.9953,0.25732 -7.47461,0.54492 -41.03074,4.75732 -69.78496,36.90601 -64.25977,71.8457 5.52536,34.93928 43.24186,59.46864 84.28907,54.81836 l 0.45117,-0.0508 c 10.70455,-1.29562 20.95397,-4.54486 30.04687,-9.52539 l 0,-26.33594 a 48.396099,41.852226 0 0 1 -30.33203,14.55664 l -0.28906,0.0332 a 48.396099,41.852226 0 0 1 -54.34961,-35.90234 48.396099,41.852226 0 0 1 41.43359,-47.05273 48.396099,41.852226 0 0 1 43.53711,14.51757 l 0,-27.42773 c -12.02378,-6.54362 -25.97187,-10.02462 -40.20312,-10.06055 z"
             id="path4259" />
          <path
             sodipodi:nodetypes="ccccc"
             inkscape:connector-curvature="0"
             id="path4261"
             d="M 356.34925,211.11303 427.2314,326.18414 426.85291,211.42112 354.65616,325.801 Z"
             style="fill:#2d5ca3;fill-opacity:1;fill-rule:evenodd;stroke:none;stroke-width:1px;stroke-linecap:butt;stroke-linejoin:miter;stroke-opacity:1" />
          <path
             inkscape:connector-curvature="0"
             id="path4263"
             d="m 481.41183,344.04747 31.98103,-132.39955 23.75,-0.26786 28.49308,132.66776 -43.13586,-43.31746 z"
             style="fill:#2d5ca3;fill-opacity:1;fill-rule:evenodd;stroke:none;stroke-width:1px;stroke-linecap:butt;stroke-linejoin:miter;stroke-opacity:1"
             sodipodi:nodetypes="cccccc" />
          <path
             inkscape:connector-curvature="0"
             id="path4265"
             d="m 577.42845,218.92322 113.64216,0 -56.63168,126.26907 z"
             style="fill:#2d5ca3;fill-opacity:1;fill-rule:evenodd;stroke:none;stroke-width:1px;stroke-linecap:butt;stroke-linejoin:miter;stroke-opacity:1" />
        </g>
        <text
           xml:space="preserve"
           style="font-style:normal;font-weight:normal;font-size:184.2716217px;line-height:125%;font-family:sans-serif;letter-spacing:0px;word-spacing:0px;fill:#ffffff;fill-opacity:1;stroke:none;stroke-width:1px;stroke-linecap:butt;stroke-linejoin:miter;stroke-opacity:1"
           x="193.57346"
           y="344.04974"
           id="text4267"
           sodipodi:linespacing="125%"><tspan
             sodipodi:role="line"
             id="tspan4269"
             x="193.57346"
             y="344.04974"
             style="font-style:normal;font-variant:normal;font-weight:normal;font-stretch:normal;font-family:Webdings;-inkscape-font-specification:Webdings;fill:#ffffff;fill-opacity:1">CHAT</tspan></text>
      </g>
    </g>
    <g
       id="g4273"
       transform="translate(722.85714,0)">
      <rect
         style="fill:#d8ad00;fill-opacity:1;fill-rule:evenodd;stroke:none;stroke-width:3;stroke-linecap:round;stroke-linejoin:round;stroke-miterlimit:4;stroke-dasharray:none;stroke-dashoffset:0;stroke-opacity:1"
         id="rect4275"
         width="665.69049"
         height="394.96964"
         x="43.767246"
         y="94.707855" />
      <g
         id="g4277"
         transform="translate(-70.883181,15.130342)">
        <g
           id="g4279"
           style="fill:#8d7000;fill-opacity:1">
          <path
             id="path4281"
             d="m 282.6543,212.90234 c -0.94875,-0.002 -1.89883,0.0107 -2.84961,0.0391 -2.50065,0.0755 -4.9953,0.25732 -7.47461,0.54492 -41.03074,4.75732 -69.78496,36.90601 -64.25977,71.8457 5.52536,34.93928 43.24186,59.46864 84.28907,54.81836 l 0.45117,-0.0508 c 10.70455,-1.29562 20.95397,-4.54486 30.04687,-9.52539 l 0,-26.33594 a 48.396099,41.852226 0 0 1 -30.33203,14.55664 l -0.28906,0.0332 a 48.396099,41.852226 0 0 1 -54.34961,-35.90234 48.396099,41.852226 0 0 1 41.43359,-47.05273 48.396099,41.852226 0 0 1 43.53711,14.51757 l 0,-27.42773 c -12.02378,-6.54362 -25.97187,-10.02462 -40.20312,-10.06055 z"
             style="fill:#8d7000;fill-opacity:1;fill-rule:evenodd;stroke:none;stroke-width:3;stroke-linecap:round;stroke-linejoin:round;stroke-miterlimit:4;stroke-dasharray:none;stroke-dashoffset:0;stroke-opacity:1"
             inkscape:connector-curvature="0" />
          <path
             style="fill:#8d7000;fill-opacity:1;fill-rule:evenodd;stroke:none;stroke-width:1px;stroke-linecap:butt;stroke-linejoin:miter;stroke-opacity:1"
             d="M 356.34925,211.11303 427.2314,326.18414 426.85291,211.42112 354.65616,325.801 Z"
             id="path4283"
             inkscape:connector-curvature="0"
             sodipodi:nodetypes="ccccc" />
          <path
             sodipodi:nodetypes="cccccc"
             style="fill:#8d7000;fill-opacity:1;fill-rule:evenodd;stroke:none;stroke-width:1px;stroke-linecap:butt;stroke-linejoin:miter;stroke-opacity:1"
             d="m 481.41183,344.04747 31.98103,-132.39955 23.75,-0.26786 28.49308,132.66776 -43.13586,-43.31746 z"
             id="path4285"
             inkscape:connector-curvature="0" />
          <path
             style="fill:#8d7000;fill-opacity:1;fill-rule:evenodd;stroke:none;stroke-width:1px;stroke-linecap:butt;stroke-linejoin:miter;stroke-opacity:1"
             d="m 577.42845,218.92322 113.64216,0 -56.63168,126.26907 z"
             id="path4287"
             inkscape:connector-curvature="0" />
        </g>
        <text
           sodipodi:linespacing="125%"
           id="text4289"
           y="344.04974"
           x="193.57346"
           style="font-style:normal;font-weight:normal;font-size:184.2716217px;line-height:125%;font-family:sans-serif;letter-spacing:0px;word-spacing:0px;fill:#ffffff;fill-opacity:1;stroke:none;stroke-width:1px;stroke-linecap:butt;stroke-linejoin:miter;stroke-opacity:1"
           xml:space="preserve"><tspan
             style="font-style:normal;font-variant:normal;font-weight:normal;font-stretch:normal;font-family:Webdings;-inkscape-font-specification:Webdings;fill:#ffffff;fill-opacity:1"
             y="344.04974"
             x="193.57346"
             id="tspan4291"
             sodipodi:role="line">CHAT</tspan></text>
      </g>
    </g>
    <g
       transform="translate(0,911.91456)"
       id="g4295">
      <rect
         y="94.707855"
         x="43.767246"
         height="394.96964"
         width="665.69049"
         id="rect4297"
         style="fill:url(#radialGradient4323);fill-opacity:1;fill-rule:evenodd;stroke:none;stroke-width:3;stroke-linecap:round;stroke-linejoin:round;stroke-miterlimit:4;stroke-dasharray:none;stroke-dashoffset:0;stroke-opacity:1" />
      <g
         transform="translate(-70.883181,15.130342)"
         id="g4299">
        <g
           style="fill:#b74a00;fill-opacity:1"
           id="g4301">
          <path
             inkscape:connector-curvature="0"
             style="fill:#b74a00;fill-opacity:1;fill-rule:evenodd;stroke:none;stroke-width:3;stroke-linecap:round;stroke-linejoin:round;stroke-miterlimit:4;stroke-dasharray:none;stroke-dashoffset:0;stroke-opacity:1"
             d="m 282.6543,212.90234 c -0.94875,-0.002 -1.89883,0.0107 -2.84961,0.0391 -2.50065,0.0755 -4.9953,0.25732 -7.47461,0.54492 -41.03074,4.75732 -69.78496,36.90601 -64.25977,71.8457 5.52536,34.93928 43.24186,59.46864 84.28907,54.81836 l 0.45117,-0.0508 c 10.70455,-1.29562 20.95397,-4.54486 30.04687,-9.52539 l 0,-26.33594 a 48.396099,41.852226 0 0 1 -30.33203,14.55664 l -0.28906,0.0332 a 48.396099,41.852226 0 0 1 -54.34961,-35.90234 48.396099,41.852226 0 0 1 41.43359,-47.05273 48.396099,41.852226 0 0 1 43.53711,14.51757 l 0,-27.42773 c -12.02378,-6.54362 -25.97187,-10.02462 -40.20312,-10.06055 z"
             id="path4303" />
          <path
             sodipodi:nodetypes="ccccc"
             inkscape:connector-curvature="0"
             id="path4305"
             d="M 356.34925,211.11303 427.2314,326.18414 426.85291,211.42112 354.65616,325.801 Z"
             style="fill:#b74a00;fill-opacity:1;fill-rule:evenodd;stroke:none;stroke-width:1px;stroke-linecap:butt;stroke-linejoin:miter;stroke-opacity:1" />
          <path
             inkscape:connector-curvature="0"
             id="path4307"
             d="m 481.41183,344.04747 31.98103,-132.39955 23.75,-0.26786 28.49308,132.66776 -43.13586,-43.31746 z"
             style="fill:#b74a00;fill-opacity:1;fill-rule:evenodd;stroke:none;stroke-width:1px;stroke-linecap:butt;stroke-linejoin:miter;stroke-opacity:1"
             sodipodi:nodetypes="cccccc" />
          <path
             inkscape:connector-curvature="0"
             id="path4309"
             d="m 577.42845,218.92322 113.64216,0 -56.63168,126.26907 z"
             style="fill:#b74a00;fill-opacity:1;fill-rule:evenodd;stroke:none;stroke-width:1px;stroke-linecap:butt;stroke-linejoin:miter;stroke-opacity:1" />
        </g>
        <text
           xml:space="preserve"
           style="font-style:normal;font-weight:normal;font-size:184.2716217px;line-height:125%;font-family:sans-serif;letter-spacing:0px;word-spacing:0px;fill:#ffffff;fill-opacity:1;stroke:none;stroke-width:1px;stroke-linecap:butt;stroke-linejoin:miter;stroke-opacity:1"
           x="193.57346"
           y="344.04974"
           id="text4311"
           sodipodi:linespacing="125%"><tspan
             sodipodi:role="line"
             id="tspan4313"
             x="193.57346"
             y="344.04974"
             style="font-style:normal;font-variant:normal;font-weight:normal;font-stretch:normal;font-family:Webdings;-inkscape-font-specification:Webdings;fill:#ffffff;fill-opacity:1">CHAT</tspan></text>
      </g>
    </g>
  </g>
</svg>
