<?xml version="1.0" encoding="UTF-8" standalone="no"?>
<!-- Created with Inkscape (http://www.inkscape.org/) -->

<svg
   xmlns:dc="http://purl.org/dc/elements/1.1/"
   xmlns:cc="http://creativecommons.org/ns#"
   xmlns:rdf="http://www.w3.org/1999/02/22-rdf-syntax-ns#"
   xmlns:svg="http://www.w3.org/2000/svg"
   xmlns="http://www.w3.org/2000/svg"
   xmlns:sodipodi="http://sodipodi.sourceforge.net/DTD/sodipodi-0.dtd"
   xmlns:inkscape="http://www.inkscape.org/namespaces/inkscape"
   width="15.573792mm"
   height="15.716435mm"
   viewBox="0 0 55.182729 55.688157"
   id="svg2"
   version="1.1"
   inkscape:version="0.91 r13725"
   sodipodi:docname="drone.svg">
  <defs
     id="defs4" />
  <sodipodi:namedview
     id="base"
     pagecolor="#ffffff"
     bordercolor="#666666"
     borderopacity="1.0"
     inkscape:pageopacity="0.0"
     inkscape:pageshadow="2"
     inkscape:zoom="5.6"
     inkscape:cx="-5.2839219"
     inkscape:cy="14.541717"
     inkscape:document-units="px"
     inkscape:current-layer="g4162"
     showgrid="false"
     fit-margin-top="0"
     fit-margin-left="0"
     fit-margin-right="0"
     fit-margin-bottom="0"
     inkscape:window-width="2194"
     inkscape:window-height="1171"
     inkscape:window-x="-8"
     inkscape:window-y="-8"
     inkscape:window-maximized="1" />
  <metadata
     id="metadata7">
    <rdf:RDF>
      <cc:Work
         rdf:about="">
        <dc:format>image/svg+xml</dc:format>
        <dc:type
           rdf:resource="http://purl.org/dc/dcmitype/StillImage" />
        <dc:title></dc:title>
      </cc:Work>
    </rdf:RDF>
  </metadata>
  <g
     inkscape:label="Calque 1"
     inkscape:groupmode="layer"
     id="layer1"
     transform="translate(-371.38797,-345.73133)">
    <g
       id="g4162">
      <path
         style="fill:none;fill-opacity:1;fill-rule:evenodd;stroke:#d40000;stroke-width:2.27033234;stroke-linecap:butt;stroke-linejoin:miter;stroke-miterlimit:4;stroke-dasharray:none;stroke-opacity:1"
         d="m 383.04037,389.21063 32.33196,-32.33196"
         id="path4530"
         inkscape:connector-curvature="0" />
      <path
         style="fill:none;fill-opacity:1;stroke:#d40000;stroke-width:2.57889962;stroke-miterlimit:4;stroke-dasharray:none;stroke-opacity:1"
         id="path4528"
         sodipodi:type="arc"
         sodipodi:cx="365.6254"
         sodipodi:cy="405.90689"
         sodipodi:rx="10.315598"
         sodipodi:ry="10.315598"
         sodipodi:start="5.8331717"
         sodipodi:end="5.130926"
         d="m 374.91399,401.41984 a 10.315598,10.315598 0 0 1 -3.24816,12.84915 10.315598,10.315598 0 0 1 -13.21896,-0.95398 10.315598,10.315598 0 0 1 -1.36953,-13.1824 10.315598,10.315598 0 0 1 12.74057,-3.65092"
         sodipodi:open="true"
         transform="matrix(0.99904745,-0.04363712,0.04363712,0.99904745,0,0)" />
      <path
         inkscape:connector-curvature="0"
         id="path4532"
         d="m 383.04037,356.87867 32.33196,32.33196"
         style="fill:none;fill-opacity:1;fill-rule:evenodd;stroke:#d40000;stroke-width:2.27033234;stroke-linecap:butt;stroke-linejoin:miter;stroke-miterlimit:4;stroke-dasharray:none;stroke-opacity:1" />
      <path
         sodipodi:open="true"
         d="m 371.54475,-382.82299 a 10.315598,10.315598 0 0 1 -3.24815,12.84915 10.315598,10.315598 0 0 1 -13.21897,-0.95398 10.315598,10.315598 0 0 1 -1.36952,-13.1824 10.315598,10.315598 0 0 1 12.74056,-3.65092"
         sodipodi:end="5.130926"
         sodipodi:start="5.8331717"
         sodipodi:ry="10.315598"
         sodipodi:rx="10.315598"
         sodipodi:cy="-378.33594"
         sodipodi:cx="362.25616"
         sodipodi:type="arc"
         id="path4534"
         style="fill:none;fill-opacity:1;stroke:#d40000;stroke-width:2.57889962;stroke-miterlimit:4;stroke-dasharray:none;stroke-opacity:1"
         transform="matrix(0.012933,0.99991637,-0.99991637,0.012933,0,0)" />
      <path
         transform="matrix(-0.99996377,-0.00851246,0.00851246,-0.99996377,0,0)"
         style="fill:none;fill-opacity:1;stroke:#d40000;stroke-width:2.57889962;stroke-miterlimit:4;stroke-dasharray:none;stroke-opacity:1"
         id="path4536"
         sodipodi:type="arc"
         sodipodi:cx="-417.99527"
         sodipodi:cy="-353.78717"
         sodipodi:rx="10.315598"
         sodipodi:ry="10.315598"
         sodipodi:start="5.8331717"
         sodipodi:end="5.130926"
         d="m -408.70668,-358.27423 a 10.315598,10.315598 0 0 1 -3.24815,12.84916 10.315598,10.315598 0 0 1 -13.21897,-0.95398 10.315598,10.315598 0 0 1 -1.36953,-13.1824 10.315598,10.315598 0 0 1 12.74057,-3.65092"
         sodipodi:open="true" />
      <path
         sodipodi:open="true"
         d="m -343.2737,442.56714 a 10.315598,10.315598 0 0 1 -3.24815,12.84916 10.315598,10.315598 0 0 1 -13.21897,-0.95398 10.315598,10.315598 0 0 1 -1.36952,-13.1824 10.315598,10.315598 0 0 1 12.74056,-3.65092"
         sodipodi:end="5.130926"
         sodipodi:start="5.8331717"
         sodipodi:ry="10.315598"
         sodipodi:rx="10.315598"
         sodipodi:cy="447.0542"
         sodipodi:cx="-352.56229"
         sodipodi:type="arc"
         id="path4538"
         style="fill:none;fill-opacity:1;stroke:#d40000;stroke-width:2.57889962;stroke-miterlimit:4;stroke-dasharray:none;stroke-opacity:1"
         transform="matrix(0.08627796,-0.9962711,0.9962711,0.08627796,0,0)" />
      <rect
         style="fill:#d40000;fill-opacity:1;stroke:none;stroke-width:0.41332856;stroke-miterlimit:4;stroke-dasharray:none;stroke-opacity:1"
         id="rect4540"
         width="14.392285"
         height="14.392285"
         x="391.60477"
         y="365.84851" />
      <circle
         style="fill:#d40000;fill-opacity:1;stroke:none"
         id="path4520"
         cx="382.83765"
         cy="356.828"
         r="3.4460406" />
      <circle
         r="3.4460406"
         cy="356.828"
         cx="414.86554"
         id="circle4522"
         style="fill:#d40000;fill-opacity:1;stroke:none" />
      <circle
         style="fill:#d40000;fill-opacity:1;stroke:none"
         id="circle4524"
         cx="414.86554"
         cy="389.46402"
         r="3.4460406" />
      <circle
         r="3.4460406"
         cy="389.46402"
         cx="382.68561"
         id="circle4526"
         style="fill:#d40000;fill-opacity:1;stroke:none" />
    </g>
  </g>
</svg>
