<?xml version="1.0" encoding="UTF-8" standalone="no"?>
<!-- Created with Inkscape (http://www.inkscape.org/) -->

<svg
   xmlns:dc="http://purl.org/dc/elements/1.1/"
   xmlns:cc="http://creativecommons.org/ns#"
   xmlns:rdf="http://www.w3.org/1999/02/22-rdf-syntax-ns#"
   xmlns:svg="http://www.w3.org/2000/svg"
   xmlns="http://www.w3.org/2000/svg"
   xmlns:sodipodi="http://sodipodi.sourceforge.net/DTD/sodipodi-0.dtd"
   xmlns:inkscape="http://www.inkscape.org/namespaces/inkscape"
   width="140.93683mm"
   height="30.676643mm"
   viewBox="0 0 499.38246 108.69677"
   id="svg2"
   version="1.1"
   inkscape:version="0.91 r13725"
   sodipodi:docname="insa_logo.svg">
  <defs
     id="defs4">
    <clipPath
       id="clipPath5097"
       clipPathUnits="userSpaceOnUse">
      <path
         style="clip-rule:evenodd"
         id="path5099"
         d="M -5.38e-7,744.6 400.44,744.6 l 0,60.24 L -5.38e-7,804.84 l 0,-60.24 z"
         inkscape:connector-curvature="0" />
    </clipPath>
    <clipPath
       id="clipPath5107"
       clipPathUnits="userSpaceOnUse">
      <path
         id="path5109"
         d="m 0,0 298.79,0 0,64.788 L 0,64.788 0,0 Z"
         inkscape:connector-curvature="0" />
    </clipPath>
    <clipPath
       id="clipPath5121"
       clipPathUnits="userSpaceOnUse">
      <path
         style="clip-rule:evenodd"
         id="path5123"
         d="m 0,64.788 0,-65.40088 299.4,0 0,65.40088"
         inkscape:connector-curvature="0" />
    </clipPath>
    <clipPath
       id="clipPath5131"
       clipPathUnits="userSpaceOnUse">
      <path
         style="clip-rule:evenodd"
         id="path5133"
         d="m 0,64.788 0,-65.40088 299.4,0 0,65.40088"
         inkscape:connector-curvature="0" />
    </clipPath>
    <clipPath
       id="clipPath5141"
       clipPathUnits="userSpaceOnUse">
      <path
         style="clip-rule:evenodd"
         id="path5143"
         d="m 0,64.788 0,-65.40088 299.4,0 0,65.40088"
         inkscape:connector-curvature="0" />
    </clipPath>
    <clipPath
       id="clipPath5151"
       clipPathUnits="userSpaceOnUse">
      <path
         style="clip-rule:evenodd"
         id="path5153"
         d="m 0,64.788 0,-65.40088 299.4,0 0,65.40088"
         inkscape:connector-curvature="0" />
    </clipPath>
    <clipPath
       id="clipPath5161"
       clipPathUnits="userSpaceOnUse">
      <path
         style="clip-rule:evenodd"
         id="path5163"
         d="m 0,64.788 0,-65.40088 299.4,0 0,65.40088"
         inkscape:connector-curvature="0" />
    </clipPath>
    <clipPath
       id="clipPath5171"
       clipPathUnits="userSpaceOnUse">
      <path
         style="clip-rule:evenodd"
         id="path5173"
         d="m 0,64.788 0,-65.40088 299.4,0 0,65.40088"
         inkscape:connector-curvature="0" />
    </clipPath>
    <clipPath
       id="clipPath5181"
       clipPathUnits="userSpaceOnUse">
      <path
         style="clip-rule:evenodd"
         id="path5183"
         d="m 0,64.788 0,-65.40088 299.4,0 0,65.40088"
         inkscape:connector-curvature="0" />
    </clipPath>
    <clipPath
       id="clipPath5191"
       clipPathUnits="userSpaceOnUse">
      <path
         style="clip-rule:evenodd"
         id="path5193"
         d="m 0,64.788 0,-65.40088 299.4,0 0,65.40088"
         inkscape:connector-curvature="0" />
    </clipPath>
    <clipPath
       id="clipPath5201"
       clipPathUnits="userSpaceOnUse">
      <path
         style="clip-rule:evenodd"
         id="path5203"
         d="m 0,64.788 0,-65.40088 299.4,0 0,65.40088"
         inkscape:connector-curvature="0" />
    </clipPath>
    <clipPath
       id="clipPath5211"
       clipPathUnits="userSpaceOnUse">
      <path
         style="clip-rule:evenodd"
         id="path5213"
         d="m 0,64.788 0,-65.40088 299.4,0 0,65.40088"
         inkscape:connector-curvature="0" />
    </clipPath>
    <clipPath
       id="clipPath5221"
       clipPathUnits="userSpaceOnUse">
      <path
         style="clip-rule:evenodd"
         id="path5223"
         d="m 0,64.788 0,-65.40088 299.4,0 0,65.40088"
         inkscape:connector-curvature="0" />
    </clipPath>
    <clipPath
       id="clipPath5231"
       clipPathUnits="userSpaceOnUse">
      <path
         style="clip-rule:evenodd"
         id="path5233"
         d="m 0,64.788 0,-65.40088 299.4,0 0,65.40088"
         inkscape:connector-curvature="0" />
    </clipPath>
    <clipPath
       id="clipPath5241"
       clipPathUnits="userSpaceOnUse">
      <path
         style="clip-rule:evenodd"
         id="path5243"
         d="m 0,64.788 0,-65.40088 299.4,0 0,65.40088"
         inkscape:connector-curvature="0" />
    </clipPath>
    <clipPath
       id="clipPath5251"
       clipPathUnits="userSpaceOnUse">
      <path
         style="clip-rule:evenodd"
         id="path5253"
         d="m 0,64.788 0,-65.40088 299.4,0 0,65.40088"
         inkscape:connector-curvature="0" />
    </clipPath>
    <clipPath
       id="clipPath5261"
       clipPathUnits="userSpaceOnUse">
      <path
         style="clip-rule:evenodd"
         id="path5263"
         d="m 0,64.788 0,-65.40088 299.4,0 0,65.40088"
         inkscape:connector-curvature="0" />
    </clipPath>
    <clipPath
       id="clipPath5271"
       clipPathUnits="userSpaceOnUse">
      <path
         style="clip-rule:evenodd"
         id="path5273"
         d="m 0,64.788 0,-65.40088 299.4,0 0,65.40088"
         inkscape:connector-curvature="0" />
    </clipPath>
    <clipPath
       id="clipPath5281"
       clipPathUnits="userSpaceOnUse">
      <path
         style="clip-rule:evenodd"
         id="path5283"
         d="m 0,64.788 0,-65.40088 299.4,0 0,65.40088"
         inkscape:connector-curvature="0" />
    </clipPath>
    <clipPath
       id="clipPath5291"
       clipPathUnits="userSpaceOnUse">
      <path
         style="clip-rule:evenodd"
         id="path5293"
         d="m 0,64.788 0,-65.40088 299.4,0 0,65.40088"
         inkscape:connector-curvature="0" />
    </clipPath>
    <clipPath
       id="clipPath5301"
       clipPathUnits="userSpaceOnUse">
      <path
         style="clip-rule:evenodd"
         id="path5303"
         d="m 0,64.788 0,-65.40088 299.4,0 0,65.40088"
         inkscape:connector-curvature="0" />
    </clipPath>
    <clipPath
       id="clipPath5311"
       clipPathUnits="userSpaceOnUse">
      <path
         style="clip-rule:evenodd"
         id="path5313"
         d="m 0,64.788 0,-65.40088 299.4,0 0,65.40088"
         inkscape:connector-curvature="0" />
    </clipPath>
    <clipPath
       id="clipPath5321"
       clipPathUnits="userSpaceOnUse">
      <path
         style="clip-rule:evenodd"
         id="path5323"
         d="m 0,64.788 0,-65.40088 299.4,0 0,65.40088"
         inkscape:connector-curvature="0" />
    </clipPath>
    <clipPath
       id="clipPath5331"
       clipPathUnits="userSpaceOnUse">
      <path
         style="clip-rule:evenodd"
         id="path5333"
         d="m 0,64.788 0,-65.40088 299.4,0 0,65.40088"
         inkscape:connector-curvature="0" />
    </clipPath>
    <clipPath
       id="clipPath5341"
       clipPathUnits="userSpaceOnUse">
      <path
         style="clip-rule:evenodd"
         id="path5343"
         d="m 0,64.788 0,-65.40088 299.4,0 0,65.40088"
         inkscape:connector-curvature="0" />
    </clipPath>
    <clipPath
       id="clipPath5351"
       clipPathUnits="userSpaceOnUse">
      <path
         style="clip-rule:evenodd"
         id="path5353"
         d="m 0,64.788 0,-65.40088 299.4,0 0,65.40088"
         inkscape:connector-curvature="0" />
    </clipPath>
    <clipPath
       id="clipPath5361"
       clipPathUnits="userSpaceOnUse">
      <path
         style="clip-rule:evenodd"
         id="path5363"
         d="m 0,64.788 0,-65.40088 299.4,0 0,65.40088"
         inkscape:connector-curvature="0" />
    </clipPath>
    <clipPath
       id="clipPath5371"
       clipPathUnits="userSpaceOnUse">
      <path
         style="clip-rule:evenodd"
         id="path5373"
         d="m 0,64.788 0,-65.40088 299.4,0 0,65.40088"
         inkscape:connector-curvature="0" />
    </clipPath>
    <clipPath
       id="clipPath5381"
       clipPathUnits="userSpaceOnUse">
      <path
         style="clip-rule:evenodd"
         id="path5383"
         d="m 0,64.788 0,-65.40088 299.4,0 0,65.40088"
         inkscape:connector-curvature="0" />
    </clipPath>
    <clipPath
       id="clipPath5391"
       clipPathUnits="userSpaceOnUse">
      <path
         style="clip-rule:evenodd"
         id="path5393"
         d="m 0,64.788 0,-65.40088 299.4,0 0,65.40088"
         inkscape:connector-curvature="0" />
    </clipPath>
    <clipPath
       id="clipPath5401"
       clipPathUnits="userSpaceOnUse">
      <path
         style="clip-rule:evenodd"
         id="path5403"
         d="m 0,64.788 0,-65.40088 299.4,0 0,65.40088"
         inkscape:connector-curvature="0" />
    </clipPath>
    <clipPath
       id="clipPath5411"
       clipPathUnits="userSpaceOnUse">
      <path
         style="clip-rule:evenodd"
         id="path5413"
         d="m 0,64.788 0,-65.40088 299.4,0 0,65.40088"
         inkscape:connector-curvature="0" />
    </clipPath>
    <clipPath
       id="clipPath5421"
       clipPathUnits="userSpaceOnUse">
      <path
         style="clip-rule:evenodd"
         id="path5423"
         d="m 0,64.788 0,-65.40088 299.4,0 0,65.40088"
         inkscape:connector-curvature="0" />
    </clipPath>
    <clipPath
       id="clipPath5431"
       clipPathUnits="userSpaceOnUse">
      <path
         style="clip-rule:evenodd"
         id="path5433"
         d="m 0,64.788 0,-65.40088 299.4,0 0,65.40088"
         inkscape:connector-curvature="0" />
    </clipPath>
    <clipPath
       id="clipPath5441"
       clipPathUnits="userSpaceOnUse">
      <path
         style="clip-rule:evenodd"
         id="path5443"
         d="m 0,64.788 0,-65.40088 299.4,0 0,65.40088"
         inkscape:connector-curvature="0" />
    </clipPath>
    <clipPath
       id="clipPath5451"
       clipPathUnits="userSpaceOnUse">
      <path
         style="clip-rule:evenodd"
         id="path5453"
         d="m 0,64.788 0,-65.40088 299.4,0 0,65.40088"
         inkscape:connector-curvature="0" />
    </clipPath>
    <clipPath
       id="clipPath5461"
       clipPathUnits="userSpaceOnUse">
      <path
         style="clip-rule:evenodd"
         id="path5463"
         d="m 0,64.788 0,-65.40088 299.4,0 0,65.40088"
         inkscape:connector-curvature="0" />
    </clipPath>
    <clipPath
       id="clipPath5471"
       clipPathUnits="userSpaceOnUse">
      <path
         style="clip-rule:evenodd"
         id="path5473"
         d="m 0,64.788 0,-65.40088 299.4,0 0,65.40088"
         inkscape:connector-curvature="0" />
    </clipPath>
    <clipPath
       id="clipPath5481"
       clipPathUnits="userSpaceOnUse">
      <path
         style="clip-rule:evenodd"
         id="path5483"
         d="m 0,64.788 0,-65.40088 299.4,0 0,65.40088"
         inkscape:connector-curvature="0" />
    </clipPath>
    <clipPath
       id="clipPath5491"
       clipPathUnits="userSpaceOnUse">
      <path
         style="clip-rule:evenodd"
         id="path5493"
         d="m 0,64.788 0,-65.40088 299.4,0 0,65.40088"
         inkscape:connector-curvature="0" />
    </clipPath>
    <clipPath
       id="clipPath5501"
       clipPathUnits="userSpaceOnUse">
      <path
         style="clip-rule:evenodd"
         id="path5503"
         d="m 0,64.788 0,-65.40088 299.4,0 0,65.40088"
         inkscape:connector-curvature="0" />
    </clipPath>
    <clipPath
       id="clipPath5511"
       clipPathUnits="userSpaceOnUse">
      <path
         style="clip-rule:evenodd"
         id="path5513"
         d="m 0,64.788 0,-65.40088 299.4,0 0,65.40088"
         inkscape:connector-curvature="0" />
    </clipPath>
    <clipPath
       id="clipPath5521"
       clipPathUnits="userSpaceOnUse">
      <path
         style="clip-rule:evenodd"
         id="path5523"
         d="m 0,64.788 0,-65.40088 299.4,0 0,65.40088"
         inkscape:connector-curvature="0" />
    </clipPath>
    <clipPath
       id="clipPath5531"
       clipPathUnits="userSpaceOnUse">
      <path
         style="clip-rule:evenodd"
         id="path5533"
         d="m 0,64.788 0,-65.40088 299.4,0 0,65.40088"
         inkscape:connector-curvature="0" />
    </clipPath>
    <clipPath
       id="clipPath5541"
       clipPathUnits="userSpaceOnUse">
      <path
         style="clip-rule:evenodd"
         id="path5543"
         d="m 0,64.788 0,-65.40088 299.4,0 0,65.40088"
         inkscape:connector-curvature="0" />
    </clipPath>
    <clipPath
       id="clipPath5551"
       clipPathUnits="userSpaceOnUse">
      <path
         id="path5553"
         d="m 0,64.788 0,-65.3258 299.02,0 0,65.3258"
         inkscape:connector-curvature="0" />
    </clipPath>
    <clipPath
       id="clipPath5561"
       clipPathUnits="userSpaceOnUse">
      <path
         id="path5563"
         d="m 0,64.788 0,-65.3258 299.02,0 0,65.3258"
         inkscape:connector-curvature="0" />
    </clipPath>
    <clipPath
       id="clipPath5571"
       clipPathUnits="userSpaceOnUse">
      <path
         id="path5573"
         d="m 0,64.788 0,-65.40088 299.4,0 0,65.40088"
         inkscape:connector-curvature="0" />
    </clipPath>
    <clipPath
       id="clipPath5581"
       clipPathUnits="userSpaceOnUse">
      <path
         id="path5583"
         d="m 0,64.788 0,-65.40088 299.4,0 0,65.40088"
         inkscape:connector-curvature="0" />
    </clipPath>
  </defs>
  <sodipodi:namedview
     id="base"
     pagecolor="#ffffff"
     bordercolor="#666666"
     borderopacity="1.0"
     inkscape:pageopacity="0.0"
     inkscape:pageshadow="2"
     inkscape:zoom="1.979899"
     inkscape:cx="168.29495"
     inkscape:cy="68.197321"
     inkscape:document-units="px"
     inkscape:current-layer="layer1"
     showgrid="false"
     fit-margin-top="0"
     fit-margin-left="0"
     fit-margin-right="0"
     fit-margin-bottom="0"
     inkscape:window-width="2560"
     inkscape:window-height="1377"
     inkscape:window-x="-8"
     inkscape:window-y="-8"
     inkscape:window-maximized="1" />
  <metadata
     id="metadata7">
    <rdf:RDF>
      <cc:Work
         rdf:about="">
        <dc:format>image/svg+xml</dc:format>
        <dc:type
           rdf:resource="http://purl.org/dc/dcmitype/StillImage" />
        <dc:title></dc:title>
      </cc:Work>
    </rdf:RDF>
  </metadata>
  <g
     inkscape:label="Calque 1"
     inkscape:groupmode="layer"
     id="layer1"
     transform="translate(-123.69307,-598.56232)">
    <g
       id="g5093"
       transform="matrix(2.2528133,0,0,-2.2528133,36.989049,2411.7151)">
      <g
         id="g5095"
         clip-path="url(#clipPath5097)">
        <g
           id="g5101"
           transform="matrix(3.0826,0,0,0.67014,38.487,756.59)">
          <g
             id="g5103"
             transform="scale(0.24097,1.1113)">
            <g
               id="g5105"
               clip-path="url(#clipPath5107)">
              <g
                 id="g5111">
                <g
                   id="g5113">
                  <g
                     id="g5115" />
                </g>
                <g
                   id="g5117">
                  <g
                     id="g5119"
                     clip-path="url(#clipPath5121)">
                    <path
                       inkscape:connector-curvature="0"
                       d="m 184.4,63.586 0,0 1.35,0 0,-11.037 -1.35,0 0,11.037 z"
                       style="fill:#4e4e4e;fill-opacity:1;fill-rule:nonzero;stroke:none"
                       id="path5125" />
                  </g>
                </g>
                <g
                   id="g5127">
                  <g
                     id="g5129"
                     clip-path="url(#clipPath5131)">
                    <path
                       inkscape:connector-curvature="0"
                       d="m 187.55,63.586 0,0 1.72,0 3.68,-9.235 0,0 0,9.235 1.35,0 0,-11.037 -1.8,0 -3.6,8.935 0,0 0,-8.935 -1.35,0 0,11.037 z"
                       style="fill:#4e4e4e;fill-opacity:1;fill-rule:nonzero;stroke:none"
                       id="path5135" />
                  </g>
                </g>
                <g
                   id="g5137">
                  <g
                     id="g5139"
                     clip-path="url(#clipPath5141)">
                    <path
                       inkscape:connector-curvature="0"
                       d="m 200.83,60.733 0,0 c 0,1.126 -0.38,1.952 -1.73,1.952 -1.13,0 -1.8,-0.675 -1.8,-1.802 0,-3.153 5.18,-1.276 5.18,-5.331 0,-2.553 -1.88,-3.229 -3.38,-3.229 -2.63,0 -3.38,1.277 -3.38,3.68 l 1.35,0 c 0,-1.277 0.08,-2.553 2.1,-2.553 1.06,0 1.88,0.751 1.88,1.952 0,3.078 -5.18,1.276 -5.18,5.331 0,1.051 0.45,3.004 3.23,3.004 2.1,0 3.08,-1.052 3.08,-3.004 l -1.35,0 z"
                       style="fill:#4e4e4e;fill-opacity:1;fill-rule:nonzero;stroke:none"
                       id="path5145" />
                  </g>
                </g>
                <g
                   id="g5147">
                  <g
                     id="g5149"
                     clip-path="url(#clipPath5151)">
                    <path
                       inkscape:connector-curvature="0"
                       d="m 207.28,52.549 0,0 -1.35,0 0,9.836 -2.78,0 0,1.201 6.9,0 0,-1.201 -2.77,0 0,-9.836 z"
                       style="fill:#4e4e4e;fill-opacity:1;fill-rule:nonzero;stroke:none"
                       id="path5155" />
                  </g>
                </g>
                <g
                   id="g5157">
                  <g
                     id="g5159"
                     clip-path="url(#clipPath5161)">
                    <path
                       inkscape:connector-curvature="0"
                       d="m 211.25,63.586 0,0 1.35,0 0,-11.037 -1.35,0 0,11.037 z"
                       style="fill:#4e4e4e;fill-opacity:1;fill-rule:nonzero;stroke:none"
                       id="path5165" />
                  </g>
                </g>
                <g
                   id="g5167">
                  <g
                     id="g5169"
                     clip-path="url(#clipPath5171)">
                    <path
                       inkscape:connector-curvature="0"
                       d="m 217.85,52.549 0,0 -1.35,0 0,9.836 -2.77,0 0,1.201 6.9,0 0,-1.201 -2.78,0 0,-9.836 z"
                       style="fill:#4e4e4e;fill-opacity:1;fill-rule:nonzero;stroke:none"
                       id="path5175" />
                  </g>
                </g>
                <g
                   id="g5177">
                  <g
                     id="g5179"
                     clip-path="url(#clipPath5181)">
                    <path
                       inkscape:connector-curvature="0"
                       d="m 221.76,63.586 0,0 1.35,0 0,-7.809 c 0,-1.576 0.52,-2.327 1.87,-2.327 1.43,0 1.88,0.826 1.88,2.327 l 0,7.809 1.35,0 0,-7.809 c 0,-2.102 -1.13,-3.454 -3.23,-3.454 -2.25,0 -3.22,1.202 -3.22,3.454 l 0,7.809 z"
                       style="fill:#4e4e4e;fill-opacity:1;fill-rule:nonzero;stroke:none"
                       id="path5185" />
                  </g>
                </g>
                <g
                   id="g5187">
                  <g
                     id="g5189"
                     clip-path="url(#clipPath5191)">
                    <path
                       inkscape:connector-curvature="0"
                       d="m 233.38,52.549 0,0 -1.35,0 0,9.836 -2.77,0 0,1.201 6.9,0 0,-1.201 -2.78,0 0,-9.836 z"
                       style="fill:#4e4e4e;fill-opacity:1;fill-rule:nonzero;stroke:none"
                       id="path5195" />
                  </g>
                </g>
                <g
                   id="g5197">
                  <g
                     id="g5199"
                     clip-path="url(#clipPath5201)">
                    <path
                       inkscape:connector-curvature="0"
                       d="m 240.89,63.586 0,0 1.8,0 3.6,-9.235 0.07,0 0,9.235 1.35,0 0,-11.037 -1.87,0 -3.53,8.935 -0.07,0 0,-8.935 -1.35,0 0,11.037 z"
                       style="fill:#4e4e4e;fill-opacity:1;fill-rule:nonzero;stroke:none"
                       id="path5205" />
                  </g>
                </g>
                <g
                   id="g5207">
                  <g
                     id="g5209"
                     clip-path="url(#clipPath5211)">
                    <path
                       inkscape:connector-curvature="0"
                       d="m 251.24,56.678 0,0 3,0 -1.43,5.332 0,0 -1.57,-5.332 0,0 z m 0.67,6.908 0,0 1.8,0 3,-11.037 -1.42,0 -0.75,3.003 -3.53,0 -0.82,-3.003 -1.43,0 3.15,11.037 z"
                       style="fill:#4e4e4e;fill-opacity:1;fill-rule:nonzero;stroke:none"
                       id="path5215" />
                  </g>
                </g>
                <g
                   id="g5217">
                  <g
                     id="g5219"
                     clip-path="url(#clipPath5221)">
                    <path
                       inkscape:connector-curvature="0"
                       d="m 260.17,52.549 0,0 -1.36,0 0,9.836 -2.77,0 0,1.201 6.9,0 0,-1.201 -2.77,0 0,-9.836 z"
                       style="fill:#4e4e4e;fill-opacity:1;fill-rule:nonzero;stroke:none"
                       id="path5225" />
                  </g>
                </g>
                <g
                   id="g5227">
                  <g
                     id="g5229"
                     clip-path="url(#clipPath5231)">
                    <path
                       inkscape:connector-curvature="0"
                       d="m 264.07,63.586 0,0 1.35,0 0,-11.037 -1.35,0 0,11.037 z"
                       style="fill:#4e4e4e;fill-opacity:1;fill-rule:nonzero;stroke:none"
                       id="path5235" />
                  </g>
                </g>
                <g
                   id="g5237">
                  <g
                     id="g5239"
                     clip-path="url(#clipPath5241)">
                    <path
                       inkscape:connector-curvature="0"
                       d="m 268.49,58.03 0,0 c 0,-2.553 0.23,-4.58 2.1,-4.58 1.88,0 2.18,2.027 2.18,4.58 0,2.553 -0.3,4.655 -2.18,4.655 -1.87,0 -2.1,-2.102 -2.1,-4.655 l 0,0 z m 5.63,0 0,0 c 0,-2.778 -0.45,-5.707 -3.53,-5.707 -3,0 -3.52,2.929 -3.52,5.707 0,2.778 0.52,5.707 3.52,5.707 3.08,0 3.53,-2.929 3.53,-5.707 z"
                       style="fill:#4e4e4e;fill-opacity:1;fill-rule:nonzero;stroke:none"
                       id="path5245" />
                  </g>
                </g>
                <g
                   id="g5247">
                  <g
                     id="g5249"
                     clip-path="url(#clipPath5251)">
                    <path
                       inkscape:connector-curvature="0"
                       d="m 275.77,63.586 0,0 1.72,0 3.68,-9.235 0,0 0,9.235 1.35,0 0,-11.037 -1.8,0 -3.6,8.935 0,0 0,-8.935 -1.35,0 0,11.037 z"
                       style="fill:#4e4e4e;fill-opacity:1;fill-rule:nonzero;stroke:none"
                       id="path5255" />
                  </g>
                </g>
                <g
                   id="g5257">
                  <g
                     id="g5259"
                     clip-path="url(#clipPath5261)">
                    <path
                       inkscape:connector-curvature="0"
                       d="m 286.12,56.678 0,0 2.93,0 -1.35,5.332 -0.08,0 -1.5,-5.332 0,0 z m 0.68,6.908 0,0 1.8,0 3,-11.037 -1.43,0 -0.82,3.003 -3.53,0 -0.82,-3.003 -1.43,0 3.23,11.037 z"
                       style="fill:#4e4e4e;fill-opacity:1;fill-rule:nonzero;stroke:none"
                       id="path5265" />
                  </g>
                </g>
                <g
                   id="g5267">
                  <g
                     id="g5269"
                     clip-path="url(#clipPath5271)">
                    <path
                       inkscape:connector-curvature="0"
                       d="m 292.57,63.586 0,0 1.43,0 0,-9.836 4.42,0 0,-1.201 -5.85,0 0,11.037 z"
                       style="fill:#4e4e4e;fill-opacity:1;fill-rule:nonzero;stroke:none"
                       id="path5275" />
                  </g>
                </g>
                <g
                   id="g5277">
                  <g
                     id="g5279"
                     clip-path="url(#clipPath5281)">
                    <path
                       inkscape:connector-curvature="0"
                       d="m 185.9,36.48 0,0 1.42,0 c 2.33,0 2.55,2.403 2.55,4.355 0,2.178 -0.07,4.43 -2.55,4.43 l -1.42,0 0,-8.785 0,0 z m -1.35,9.911 0,0 2.92,0 c 3.45,0 3.83,-2.477 3.83,-5.556 0,-2.778 -0.68,-5.481 -3.68,-5.481 l -3.07,0 0,11.037 z"
                       style="fill:#4e4e4e;fill-opacity:1;fill-rule:nonzero;stroke:none"
                       id="path5285" />
                  </g>
                </g>
                <g
                   id="g5287">
                  <g
                     id="g5289"
                     clip-path="url(#clipPath5291)">
                    <path
                       inkscape:connector-curvature="0"
                       d="m 192.95,46.391 0,0 5.7,0 0,-1.201 -4.35,0 0,-3.454 4.05,0 0,-1.201 -4.05,0 0,-3.98 4.5,0 0,-1.201 -5.85,0 0,11.037 z"
                       style="fill:#4e4e4e;fill-opacity:1;fill-rule:nonzero;stroke:none"
                       id="path5295" />
                  </g>
                </g>
                <g
                   id="g5297">
                  <g
                     id="g5299"
                     clip-path="url(#clipPath5301)">
                    <path
                       inkscape:connector-curvature="0"
                       d="m 204.8,43.538 0,0 c 0,1.126 -0.45,1.952 -1.72,1.952 -1.13,0 -1.8,-0.6 -1.8,-1.802 0,-3.078 5.17,-1.276 5.17,-5.256 0,-2.553 -1.87,-3.304 -3.37,-3.304 -2.63,0 -3.38,1.352 -3.38,3.68 l 1.35,0 c 0,-1.202 0.08,-2.553 2.1,-2.553 1.05,0 1.88,0.751 1.88,1.952 0,3.079 -5.18,1.276 -5.18,5.331 0,1.051 0.45,3.079 3.23,3.079 2.1,0 3.07,-1.051 3.07,-3.079 l -1.35,0 z"
                       style="fill:#4e4e4e;fill-opacity:1;fill-rule:nonzero;stroke:none"
                       id="path5305" />
                  </g>
                </g>
                <g
                   id="g5307">
                  <g
                     id="g5309"
                     clip-path="url(#clipPath5311)">
                    <path
                       inkscape:connector-curvature="0"
                       d="m 216.2,43.538 0,0 c 0,1.126 -0.37,1.952 -1.72,1.952 -1.13,0 -1.8,-0.6 -1.8,-1.802 0,-3.078 5.17,-1.276 5.17,-5.256 0,-2.553 -1.8,-3.304 -3.37,-3.304 -2.63,0 -3.38,1.352 -3.38,3.68 l 1.35,0 c 0,-1.202 0.15,-2.553 2.1,-2.553 1.05,0 1.95,0.751 1.95,1.952 0,3.079 -5.25,1.276 -5.25,5.331 0,1.051 0.45,3.079 3.23,3.079 2.1,0 3.07,-1.051 3.07,-3.079 l -1.35,0 z"
                       style="fill:#4e4e4e;fill-opacity:1;fill-rule:nonzero;stroke:none"
                       id="path5315" />
                  </g>
                </g>
                <g
                   id="g5317">
                  <g
                     id="g5319"
                     clip-path="url(#clipPath5321)">
                    <path
                       inkscape:connector-curvature="0"
                       d="m 226.03,39.108 0,0 c -0.15,-2.027 -0.97,-3.98 -3.37,-3.98 -3.15,0 -3.53,2.929 -3.53,5.707 0,2.853 0.45,5.782 3.53,5.782 2.25,0 3.22,-1.277 3.22,-3.454 l -1.42,0 c 0,1.276 -0.38,2.327 -1.8,2.327 -1.88,0 -2.1,-2.102 -2.1,-4.655 0,-2.478 0.22,-4.58 2.1,-4.58 1.65,0 1.87,1.577 1.95,2.853 l 1.42,0 z"
                       style="fill:#4e4e4e;fill-opacity:1;fill-rule:nonzero;stroke:none"
                       id="path5325" />
                  </g>
                </g>
                <g
                   id="g5327">
                  <g
                     id="g5329"
                     clip-path="url(#clipPath5331)">
                    <path
                       inkscape:connector-curvature="0"
                       d="m 227.31,46.391 0,0 1.35,0 0,-11.037 -1.35,0 0,11.037 z"
                       style="fill:#4e4e4e;fill-opacity:1;fill-rule:nonzero;stroke:none"
                       id="path5335" />
                  </g>
                </g>
                <g
                   id="g5337">
                  <g
                     id="g5339"
                     clip-path="url(#clipPath5341)">
                    <path
                       inkscape:connector-curvature="0"
                       d="m 230.46,46.391 0,0 5.7,0 0,-1.201 -4.35,0 0,-3.454 4.12,0 0,-1.201 -4.12,0 0,-3.98 4.5,0 0,-1.201 -5.85,0 0,11.037 z"
                       style="fill:#4e4e4e;fill-opacity:1;fill-rule:nonzero;stroke:none"
                       id="path5345" />
                  </g>
                </g>
                <g
                   id="g5347">
                  <g
                     id="g5349"
                     clip-path="url(#clipPath5351)">
                    <path
                       inkscape:connector-curvature="0"
                       d="m 237.58,46.391 0,0 1.81,0 3.6,-9.235 0.07,0 0,9.235 1.35,0 0,-11.037 -1.87,0 -3.53,8.935 -0.08,0 0,-8.935 -1.35,0 0,11.037 z"
                       style="fill:#4e4e4e;fill-opacity:1;fill-rule:nonzero;stroke:none"
                       id="path5355" />
                  </g>
                </g>
                <g
                   id="g5357">
                  <g
                     id="g5359"
                     clip-path="url(#clipPath5361)">
                    <path
                       inkscape:connector-curvature="0"
                       d="m 252.89,39.108 0,0 c -0.08,-2.027 -0.9,-3.98 -3.3,-3.98 -3.15,0 -3.6,2.929 -3.6,5.707 0,2.853 0.52,5.782 3.6,5.782 2.25,0 3.15,-1.277 3.22,-3.454 l -1.42,0 c 0,1.276 -0.45,2.327 -1.8,2.327 -1.88,0 -2.18,-2.102 -2.18,-4.655 0,-2.478 0.3,-4.58 2.18,-4.58 1.65,0 1.87,1.577 1.87,2.853 l 1.43,0 z"
                       style="fill:#4e4e4e;fill-opacity:1;fill-rule:nonzero;stroke:none"
                       id="path5365" />
                  </g>
                </g>
                <g
                   id="g5367">
                  <g
                     id="g5369"
                     clip-path="url(#clipPath5371)">
                    <path
                       inkscape:connector-curvature="0"
                       d="m 254.24,46.391 0,0 5.7,0 0,-1.201 -4.35,0 0,-3.454 4.05,0 0,-1.201 -4.05,0 0,-3.98 4.5,0 0,-1.201 -5.85,0 0,11.037 z"
                       style="fill:#4e4e4e;fill-opacity:1;fill-rule:nonzero;stroke:none"
                       id="path5375" />
                  </g>
                </g>
                <g
                   id="g5377">
                  <g
                     id="g5379"
                     clip-path="url(#clipPath5381)">
                    <path
                       inkscape:connector-curvature="0"
                       d="m 266.09,43.538 0,0 c 0,1.126 -0.37,1.952 -1.72,1.952 -1.13,0 -1.8,-0.6 -1.8,-1.802 0,-3.078 5.17,-1.276 5.17,-5.256 0,-2.553 -1.87,-3.304 -3.37,-3.304 -2.63,0 -3.38,1.352 -3.38,3.68 l 1.35,0 c 0,-1.202 0.08,-2.553 2.1,-2.553 1.05,0 1.88,0.751 1.88,1.952 0,3.079 -5.18,1.276 -5.18,5.331 0,1.051 0.45,3.079 3.23,3.079 2.1,0 3.07,-1.051 3.07,-3.079 l -1.35,0 z"
                       style="fill:#4e4e4e;fill-opacity:1;fill-rule:nonzero;stroke:none"
                       id="path5385" />
                  </g>
                </g>
                <g
                   id="g5387">
                  <g
                     id="g5389"
                     clip-path="url(#clipPath5391)">
                    <path
                       inkscape:connector-curvature="0"
                       d="m 185.9,22.289 0,0 2.92,0 -1.35,5.331 -0.07,0 -1.5,-5.331 0,0 z m 0.67,6.908 0,0 1.8,0 2.93,-11.038 -1.43,0 -0.75,3.078 -3.52,0 -0.83,-3.078 -1.42,0 3.22,11.038 z"
                       style="fill:#4e4e4e;fill-opacity:1;fill-rule:nonzero;stroke:none"
                       id="path5395" />
                  </g>
                </g>
                <g
                   id="g5397">
                  <g
                     id="g5399"
                     clip-path="url(#clipPath5401)">
                    <path
                       inkscape:connector-curvature="0"
                       d="m 193.7,23.941 0,0 1.65,0 c 0.97,0 1.8,0.675 1.8,2.177 0,1.201 -0.53,1.952 -1.88,1.952 l -1.57,0 0,-4.129 0,0 z m -1.35,5.256 0,0 2.85,0 c 0.9,0 3.37,0 3.37,-3.154 0,-2.027 -1.27,-3.229 -3.15,-3.229 l -1.72,0 0,-4.655 -1.35,0 0,11.038 z"
                       style="fill:#4e4e4e;fill-opacity:1;fill-rule:nonzero;stroke:none"
                       id="path5405" />
                  </g>
                </g>
                <g
                   id="g5407">
                  <g
                     id="g5409"
                     clip-path="url(#clipPath5411)">
                    <path
                       inkscape:connector-curvature="0"
                       d="m 201.2,23.941 0,0 1.58,0 c 1.05,0 1.87,0.675 1.87,2.177 0,1.201 -0.6,1.952 -1.95,1.952 l -1.5,0 0,-4.129 0,0 z m -1.35,5.256 0,0 2.78,0 c 0.97,0 3.45,0 3.45,-3.154 0,-2.027 -1.35,-3.229 -3.23,-3.229 l -1.65,0 0,-4.655 -1.35,0 0,11.038 z"
                       style="fill:#4e4e4e;fill-opacity:1;fill-rule:nonzero;stroke:none"
                       id="path5415" />
                  </g>
                </g>
                <g
                   id="g5417">
                  <g
                     id="g5419"
                     clip-path="url(#clipPath5421)">
                    <path
                       inkscape:connector-curvature="0"
                       d="m 207.28,29.197 0,0 1.35,0 0,-9.837 4.5,0 0,-1.201 -5.85,0 0,11.038 z"
                       style="fill:#4e4e4e;fill-opacity:1;fill-rule:nonzero;stroke:none"
                       id="path5425" />
                  </g>
                </g>
                <g
                   id="g5427">
                  <g
                     id="g5429"
                     clip-path="url(#clipPath5431)">
                    <path
                       inkscape:connector-curvature="0"
                       d="m 214.33,29.197 0,0 1.35,0 0,-11.038 -1.35,0 0,11.038 z"
                       style="fill:#4e4e4e;fill-opacity:1;fill-rule:nonzero;stroke:none"
                       id="path5435" />
                  </g>
                </g>
                <g
                   id="g5437">
                  <g
                     id="g5439"
                     clip-path="url(#clipPath5441)">
                    <path
                       inkscape:connector-curvature="0"
                       d="m 220.78,20.336 0,0 0.75,0.826 0.98,-0.976 c 0.37,0.826 0.45,2.103 0.45,3.529 0,2.553 -0.3,4.581 -2.18,4.581 -1.88,0 -2.1,-2.028 -2.1,-4.581 0,-2.553 0.22,-4.655 2.1,-4.655 0.45,0 0.75,0.15 1.05,0.3 l -1.05,0.976 0,0 z m 1.95,-1.802 0,0 c -0.52,-0.375 -1.12,-0.6 -1.95,-0.6 -3,0 -3.53,3.003 -3.53,5.781 0,2.778 0.53,5.707 3.53,5.707 3.08,0 3.6,-2.929 3.6,-5.707 0,-1.577 -0.22,-3.228 -0.9,-4.355 l 1.13,-1.051 -0.83,-0.751 -1.05,0.976 z"
                       style="fill:#4e4e4e;fill-opacity:1;fill-rule:nonzero;stroke:none"
                       id="path5445" />
                  </g>
                </g>
                <g
                   id="g5447">
                  <g
                     id="g5449"
                     clip-path="url(#clipPath5451)">
                    <path
                       inkscape:connector-curvature="0"
                       d="m 225.88,29.197 0,0 1.35,0 0,-7.734 c 0,-1.652 0.53,-2.403 1.88,-2.403 1.42,0 1.87,0.826 1.87,2.403 l 0,7.734 1.35,0 0,-7.734 c 0,-2.103 -1.05,-3.529 -3.22,-3.529 -2.25,0 -3.23,1.276 -3.23,3.529 l 0,7.734 z"
                       style="fill:#4e4e4e;fill-opacity:1;fill-rule:nonzero;stroke:none"
                       id="path5455" />
                  </g>
                </g>
                <g
                   id="g5457">
                  <g
                     id="g5459"
                     clip-path="url(#clipPath5461)">
                    <path
                       inkscape:connector-curvature="0"
                       d="m 237.28,32.05 0,0 1.5,0 -1.65,-2.253 -0.97,0 1.12,2.253 0,0 z m -3.22,-2.853 0,0 5.7,0 0,-1.202 -4.35,0 0,-3.454 4.13,0 0,-1.201 -4.13,0 0,-3.98 4.58,0 0,-1.201 -5.93,0 0,11.038 z"
                       style="fill:#4e4e4e;fill-opacity:1;fill-rule:nonzero;stroke:none"
                       id="path5465" />
                  </g>
                </g>
                <g
                   id="g5467">
                  <g
                     id="g5469"
                     clip-path="url(#clipPath5471)">
                    <path
                       inkscape:connector-curvature="0"
                       d="m 241.26,29.197 0,0 5.7,0 0,-1.202 -4.35,0 0,-3.454 4.05,0 0,-1.201 -4.05,0 0,-3.98 4.5,0 0,-1.201 -5.85,0 0,11.038 z"
                       style="fill:#4e4e4e;fill-opacity:1;fill-rule:nonzero;stroke:none"
                       id="path5475" />
                  </g>
                </g>
                <g
                   id="g5477">
                  <g
                     id="g5479"
                     clip-path="url(#clipPath5481)">
                    <path
                       inkscape:connector-curvature="0"
                       d="m 253.11,26.343 0,0 c 0,1.202 -0.37,1.953 -1.72,1.953 -1.13,0 -1.8,-0.601 -1.8,-1.803 0,-3.078 5.17,-1.201 5.17,-5.256 0,-2.553 -1.87,-3.303 -3.37,-3.303 -2.63,0 -3.38,1.351 -3.38,3.679 l 1.35,0 c 0,-1.202 0.08,-2.553 2.1,-2.553 1.05,0 1.88,0.826 1.88,1.952 0,3.154 -5.18,1.352 -5.18,5.406 0,0.977 0.45,3.004 3.23,3.004 2.1,0 3.07,-1.051 3.07,-3.079 l -1.35,0 z"
                       style="fill:#4e4e4e;fill-opacity:1;fill-rule:nonzero;stroke:none"
                       id="path5485" />
                  </g>
                </g>
                <g
                   id="g5487">
                  <g
                     id="g5489"
                     clip-path="url(#clipPath5491)">
                    <path
                       inkscape:connector-curvature="0"
                       d="m 184.32,12.077 0,0 2.55,0 0,-8.9356 3.75,0 0,-2.1024 -6.3,0 0,11.038 z"
                       style="fill:#4e4e4e;fill-opacity:1;fill-rule:nonzero;stroke:none"
                       id="path5495" />
                  </g>
                </g>
                <g
                   id="g5497">
                  <g
                     id="g5499"
                     clip-path="url(#clipPath5501)">
                    <path
                       inkscape:connector-curvature="0"
                       d="m 192.95,5.319 0,0 -2.78,6.758 2.85,0 1.2,-4.13 0.08,0 1.27,4.13 2.78,0 -2.78,-6.758 0,-4.28 -2.62,0 0,4.28 z"
                       style="fill:#4e4e4e;fill-opacity:1;fill-rule:nonzero;stroke:none"
                       id="path5505" />
                  </g>
                </g>
                <g
                   id="g5507">
                  <g
                     id="g5509"
                     clip-path="url(#clipPath5511)">
                    <path
                       inkscape:connector-curvature="0"
                       d="m 202.85,2.5407 0,0 c 1.05,0 1.2,0.9762 1.2,3.9797 0,3.0034 -0.15,3.9796 -1.2,3.9796 -0.97,0 -1.12,-0.9762 -1.12,-3.9796 0,-3.0035 0.15,-3.9797 1.12,-3.9797 l 0,0 z m 0.08,-1.72695 0,0 c -3.45,0 -3.91,2.17755 -3.91,5.70665 0,3.5286 0.46,5.7066 3.91,5.7066 3.67,0 3.82,-2.6281 3.82,-5.7066 0,-3.0786 -0.15,-5.70665 -3.82,-5.70665 z"
                       style="fill:#4e4e4e;fill-opacity:1;fill-rule:nonzero;stroke:none"
                       id="path5515" />
                  </g>
                </g>
                <g
                   id="g5517">
                  <g
                     id="g5519"
                     clip-path="url(#clipPath5521)">
                    <path
                       inkscape:connector-curvature="0"
                       d="m 208.48,12.077 0,0 3,0 2.17,-7.2086 0,0 0,7.2086 2.4,0 0,-11.038 -2.92,0 -2.25,7.5838 -0.08,0 0,-7.5838 -2.32,0 0,11.038 z"
                       style="fill:#4e4e4e;fill-opacity:1;fill-rule:nonzero;stroke:none"
                       id="path5525" />
                  </g>
                </g>
                <g
                   id="g5527">
                  <g
                     id="g5529"
                     clip-path="url(#clipPath5531)">
                    <path
                       inkscape:connector-curvature="0"
                       d="m 172.02,63.586 0,0 1.2,0 0,-62.547 -1.2,0 0,62.547 z"
                       style="fill:#4e4e4e;fill-opacity:1;fill-rule:nonzero;stroke:none"
                       id="path5535" />
                  </g>
                </g>
                <g
                   id="g5537">
                  <g
                     id="g5539"
                     clip-path="url(#clipPath5541)">
                    <path
                       inkscape:connector-curvature="0"
                       d="m 0,63.511 0,0 16.279,0 0,-62.54708 -16.279,0 0,62.54708 z"
                       style="fill:#ed2922;fill-opacity:1;fill-rule:nonzero;stroke:none"
                       id="path5545" />
                  </g>
                </g>
                <g
                   id="g5547">
                  <g
                     id="g5549"
                     clip-path="url(#clipPath5551)">
                    <path
                       inkscape:connector-curvature="0"
                       d="m 39.085,63.511 0,0 10.577,-38.519 0.15,0 0,38.519 15.304,0 0,-62.54708 -17.929,0 -10.953,38.67008 -0.15,0 0,-38.67008 -15.304,0 0,62.54708 18.305,0 z"
                       style="fill:#ed2922;fill-opacity:1;fill-rule:nonzero;stroke:none"
                       id="path5555" />
                  </g>
                </g>
                <g
                   id="g5557">
                  <g
                     id="g5559"
                     clip-path="url(#clipPath5561)">
                    <path
                       inkscape:connector-curvature="0"
                       d="m 94.674,46.992 0,0 c 0,1.877 -0.45,3.454 -1.201,4.731 -0.75,1.351 -1.95,2.027 -3.525,2.027 -1.726,0 -3.001,-0.601 -3.826,-1.727 -0.826,-1.126 -1.276,-2.403 -1.276,-3.829 0,-2.028 0.675,-3.68 2.026,-4.881 1.275,-1.201 2.926,-2.178 4.951,-3.079 2.026,-0.901 4.126,-1.802 6.452,-2.703 2.255,-0.901 4.425,-2.027 6.375,-3.529 2.03,-1.426 3.68,-3.379 4.95,-5.706 1.35,-2.403 2.03,-5.482 2.03,-9.236 0,-6.683 -1.95,-11.4884 -5.7,-14.4919 -3.83,-3.0786 -9.381,-4.580307 -16.583,-4.580307 -3.375,0 -6.376,0.300357 -9.002,0.901047 -2.626,0.52556 -4.801,1.50176 -6.602,2.85326 -1.8,1.3516 -3.15,3.1537 -4.051,5.4063 -0.975,2.1776 -1.425,4.9556 -1.425,8.1846 l 0,2.252 15.829,0 0,-1.501 c 0,-2.703 0.525,-4.581 1.5,-5.632 0.976,-1.126 2.251,-1.652 3.826,-1.652 1.726,0 3.001,0.601 3.976,1.727 0.901,1.202 1.351,2.628 1.351,4.28 0,2.103 -0.675,3.68 -1.876,4.881 -1.275,1.201 -2.85,2.253 -4.801,3.078 -1.875,0.826 -3.976,1.727 -6.151,2.553 -2.251,0.901 -4.352,2.028 -6.227,3.454 -1.875,1.427 -3.451,3.229 -4.726,5.557 -1.276,2.252 -1.876,5.181 -1.876,8.86 0,6.382 1.651,11.263 5.102,14.567 3.375,3.304 8.552,5.031 15.453,5.031 7.127,0 12.303,-1.577 15.533,-4.656 3.15,-3.003 4.72,-7.959 4.72,-14.642 l -15.226,0 0,1.502 z"
                       style="fill:#ed2922;fill-opacity:1;fill-rule:nonzero;stroke:none"
                       id="path5565" />
                  </g>
                </g>
                <g
                   id="g5567">
                  <g
                     id="g5569"
                     clip-path="url(#clipPath5571)">
                    <path
                       inkscape:connector-curvature="0"
                       d="m 135.26,50.747 0,0 -4.5,-26.506 9.15,0 -4.5,26.506 -0.15,0 0,0 z m 10.35,12.764 0,0 15.31,-62.54708 -17.41,0 -1.65,10.96308 -13.05,0 -1.65,-10.96308 -17.11,0 15.01,62.54708 20.55,0 z"
                       style="fill:#ed2922;fill-opacity:1;fill-rule:nonzero;stroke:none"
                       id="path5575" />
                  </g>
                </g>
                <g
                   id="g5577">
                  <g
                     id="g5579"
                     clip-path="url(#clipPath5581)">
                    <path
                       inkscape:connector-curvature="0"
                       d="m 149.89,63.586 0,0 11.03,0 0,-47.004 -11.03,47.004 z"
                       style="fill:#4e4e4e;fill-opacity:1;fill-rule:nonzero;stroke:none"
                       id="path5585" />
                  </g>
                </g>
              </g>
            </g>
          </g>
        </g>
      </g>
    </g>
  </g>
</svg>
